# xmcd CD database file
#
# Track frame offsets:
#	150
#	9465
#	19665
#	25140
#	38790
#	50920
#	63690
#	78165
#	90990
#	102390
#	119565
#	129315
#	141090
#	147315
#	158790
#	167790
#	178065
#	186615
#	200415
#	210390
#	221415
#	235815
#	248265
#	261690
#	272415
#
# Disc length: 3900 seconds
#
# Revision: 0
# Processed by: cddbd v1.4PL0 Copyright (c) Steve Scherf et al.
# Submitted via: CDex 1.51
#
DISCID=660f3a19
DTITLE=Willie Nelson - Best Of Willie Nelson Volume 2
DYEAR=1900
DGENRE=Country
TTITLE0=One Step Beyond
TTITLE1=Pride Wins Agein
TTITLE2=Waiting Time
TTITLE3=A Moment Isnt't Very Long
TTITLE4=End Of Understanding
TTITLE5=Pages
TTITLE6=Will You Remember Mine
TTITLE7=I Just Don't Understand
TTITLE8=Some Other Time
TTITLE9=I Let My Mind Wander
TTITLE10=Let's Pretend
TTITLE11=I Hope So
TTITLE12=If You Can't Undo The Wrong, Undo The Right
TTITLE13=I'll Stay Around
TTITLE14=Right From Wrong
TTITLE15=A New Way To Cry
TTITLE16=Slow Down Old World
TTITLE17=No Tomorrow In Sight
TTITLE18=Ashamed
TTITLE19=Go Away
TTITLE20=What Can You Do To Me Now
TTITLE21=She's Not For You
TTITLE22=You'll Always Have Someone
TTITLE23=Touch Me (Live)
TTITLE24=Half A Man (Live)
EXTD=
EXTT0=
EXTT1=
EXTT2=
EXTT3=
EXTT4=
EXTT5=
EXTT6=
EXTT7=
EXTT8=
EXTT9=
EXTT10=
EXTT11=
EXTT12=
EXTT13=
EXTT14=
EXTT15=
EXTT16=
EXTT17=
EXTT18=
EXTT19=
EXTT20=
EXTT21=
EXTT22=
EXTT23=
EXTT24=
PLAYORDER=
